<svg width="23" height="28" viewBox="0 0 23 28" fill="none" xmlns="http://www.w3.org/2000/svg">
<path fill-rule="evenodd" clip-rule="evenodd" d="M13.4689 4.03378C12.3138 2.83008 10.4901 2.83008 9.33497 4.03378L3.19642 10.4306C3.04601 10.5873 2.94485 10.7915 2.90725 11.0141C2.172 15.3684 2.11773 19.8261 2.74671 24.2L2.89601 25.2382H6.8453V16.2881C6.8453 15.6912 7.29084 15.2074 7.84043 15.2074H14.9635C15.5131 15.2074 15.9586 15.6912 15.9586 16.2881V25.2382H19.9079L20.0572 24.2C20.6862 19.8261 20.6319 15.3684 19.8967 11.0141C19.8591 10.7915 19.7579 10.5873 19.6075 10.4306L13.4689 4.03378ZM7.95698 2.47423C9.88216 0.468064 12.9218 0.468064 14.8469 2.47423L20.9855 8.87101C21.4374 9.34191 21.7413 9.9553 21.8543 10.6243C22.6299 15.2174 22.6871 19.9197 22.0236 24.5335L21.7838 26.2014C21.6846 26.8911 21.1376 27.3996 20.4947 27.3996H14.9635C14.4139 27.3996 13.9684 26.9158 13.9684 26.3189V17.3688H8.83557V26.3189C8.83557 26.9158 8.39003 27.3996 7.84043 27.3996H2.30919C1.66635 27.3996 1.11931 26.8911 1.02013 26.2014L0.780283 24.5335C0.116797 19.9197 0.174047 15.2174 0.949626 10.6243C1.06258 9.9553 1.36654 9.3419 1.81843 8.87101L7.95698 2.47423Z" fill="black" fill-opacity="0.5"/>
</svg>
