<svg width="35" height="35" viewBox="0 0 35 35" fill="none" xmlns="http://www.w3.org/2000/svg">
<path fill-rule="evenodd" clip-rule="evenodd" d="M27.9238 7.65621H7.78044L6.05935 4.57125C5.86616 4.22498 5.5007 4.01038 5.10419 4.01038H2.91669C2.31263 4.01038 1.82294 4.50006 1.82294 5.10413C1.82294 5.70819 2.31263 6.19788 2.91669 6.19788H4.46194L6.16045 9.24237L10.0776 17.9096L10.0817 17.9184L10.4267 18.6818L6.49378 22.8769C6.211 23.1785 6.12247 23.6139 6.265 24.002C6.40752 24.3901 6.75673 24.6647 7.16752 24.7116L10.7523 25.1213C15.2362 25.6338 19.7639 25.6338 24.2478 25.1213L27.8326 24.7116C28.4327 24.6431 28.8636 24.1009 28.7951 23.5008C28.7265 22.9006 28.1843 22.4697 27.5842 22.5383L23.9994 22.948C19.6806 23.4416 15.3195 23.4416 11.0007 22.948L9.57805 22.7854L12.4646 19.7064C12.4926 19.6766 12.5185 19.6456 12.5424 19.6137L13.6403 19.7566C15.1787 19.9567 16.7338 19.996 18.2804 19.8737C21.8875 19.5884 25.2307 17.872 27.5647 15.1069L28.4077 14.1082C28.436 14.0747 28.4623 14.0395 28.4863 14.0028L30.0575 11.6084C31.1712 9.91127 29.9537 7.65621 27.9238 7.65621ZM12.6238 17.4184C12.3825 17.387 12.1745 17.2337 12.073 17.0129L12.071 17.0087L8.83277 9.84371H27.9238C28.2138 9.84371 28.3877 10.1659 28.2286 10.4083L26.6936 12.7476L25.8931 13.6959C23.936 16.0145 21.1326 17.4538 18.1079 17.693C16.7129 17.8033 15.3102 17.7679 13.9226 17.5874L12.6238 17.4184Z" fill="black" fill-opacity="0.5"/>
<path d="M9.47919 26.9791C8.27107 26.9791 7.29169 27.9585 7.29169 29.1666C7.29169 30.3747 8.27107 31.3541 9.47919 31.3541C10.6873 31.3541 11.6667 30.3747 11.6667 29.1666C11.6667 27.9585 10.6873 26.9791 9.47919 26.9791Z" fill="black" fill-opacity="0.5"/>
<path d="M23.3334 29.1666C23.3334 27.9585 24.3127 26.9791 25.5209 26.9791C26.729 26.9791 27.7084 27.9585 27.7084 29.1666C27.7084 30.3747 26.729 31.3541 25.5209 31.3541C24.3127 31.3541 23.3334 30.3747 23.3334 29.1666Z" fill="black" fill-opacity="0.5"/>
</svg>
