<svg width="35" height="35" viewBox="0 0 35 35" fill="none" xmlns="http://www.w3.org/2000/svg">
<path fill-rule="evenodd" clip-rule="evenodd" d="M23.2227 6.44341C19.4411 5.80943 15.5589 5.80943 11.7772 6.44341C11.0656 6.56272 10.5003 7.10949 10.3585 7.81377C9.06772 14.2217 8.99729 20.8155 10.1509 27.2495L10.3894 28.5798L15.7422 23.4946C16.7273 22.5588 18.2727 22.5588 19.2577 23.4946L24.6106 28.5798L24.8491 27.2495C26.0027 20.8155 25.9322 14.2217 24.6415 7.81377C24.4996 7.10949 23.9344 6.56272 23.2227 6.44341ZM11.4155 4.28602C15.4366 3.6119 19.5633 3.6119 23.5844 4.28602C25.1874 4.55476 26.4644 5.78532 26.7859 7.38182C28.131 14.0594 28.2044 20.9308 27.0023 27.6356L26.6793 29.4371C26.4082 30.9491 24.5648 31.5535 23.451 30.4954L17.7511 25.0805C17.6104 24.9468 17.3896 24.9468 17.2489 25.0805L11.5489 30.4954C10.4352 31.5535 8.59181 30.9491 8.32071 29.4371L7.99771 27.6356C6.79558 20.9308 6.86897 14.0594 8.21403 7.38182C8.53561 5.78532 9.81252 4.55476 11.4155 4.28602Z" fill="black" fill-opacity="0.5"/>
</svg>
