<svg width="23" height="28" viewBox="0 0 23 28" fill="none" xmlns="http://www.w3.org/2000/svg">
<path d="M14.1192 2.03183C12.6865 0.552177 10.3134 0.552175 8.88072 2.03182L1.88295 9.25893C1.48105 9.674 1.21099 10.1987 1.10678 10.767C0.256927 15.4015 0.194194 20.1462 0.921223 24.8016L1.17862 26.4498C1.25992 26.9704 1.70831 27.3542 2.23521 27.3542H7.12495C7.52765 27.3542 7.85411 27.0277 7.85411 26.625V16.4167H15.1458V26.625C15.1458 27.0277 15.4722 27.3542 15.8749 27.3542H20.7646C21.2915 27.3542 21.7399 26.9704 21.8212 26.4498L22.0786 24.8016C22.8056 20.1462 22.7429 15.4015 21.893 10.767C21.7888 10.1987 21.5188 9.674 21.1169 9.25894L14.1192 2.03183Z" fill="black"/>
</svg>
