<svg width="35" height="35" viewBox="0 0 35 35" fill="none" xmlns="http://www.w3.org/2000/svg">
<path d="M23.5242 4.64559C19.543 3.97816 15.457 3.97816 11.4759 4.64559C10.0214 4.88943 8.8631 6.00603 8.57148 7.45382C7.23547 14.0865 7.16257 20.9116 8.35661 27.5712L8.84275 30.2826C8.99265 31.1187 10.0119 31.4528 10.6277 30.8678L16.4956 25.2933C17.0585 24.7586 17.9416 24.7586 18.5044 25.2933L24.3724 30.8678C24.9882 31.4528 26.0074 31.1187 26.1573 30.2826L26.6434 27.5712C27.8375 20.9116 27.7646 14.0865 26.4286 7.45382C26.1369 6.00603 24.9786 4.88943 23.5242 4.64559Z" fill="black"/>
</svg>
