<svg width="35" height="35" viewBox="0 0 35 35" fill="none" xmlns="http://www.w3.org/2000/svg">
<path d="M27.9237 7.65624H7.78038L6.05928 4.57128C5.8661 4.22501 5.50064 4.01041 5.10413 4.01041H2.91663C2.31256 4.01041 1.82288 4.5001 1.82288 5.10416C1.82288 5.70822 2.31256 6.19791 2.91663 6.19791H4.46187L6.16039 9.2424L10.0776 17.9096L10.0816 17.9185L10.4266 18.6818L6.49372 22.8769C6.21093 23.1786 6.12241 23.6139 6.26494 24.002C6.40746 24.3901 6.75667 24.6647 7.16746 24.7117L10.7522 25.1214C15.2361 25.6338 19.7638 25.6338 24.2477 25.1214L27.8325 24.7117C28.4327 24.6431 28.8636 24.101 28.795 23.5008C28.7264 22.9006 28.1843 22.4697 27.5841 22.5383L23.9993 22.948C19.6805 23.4416 15.3195 23.4416 11.0006 22.948L9.57799 22.7854L12.4646 19.7064C12.4925 19.6766 12.5184 19.6457 12.5424 19.6138L13.6402 19.7566C15.1787 19.9568 16.7338 19.996 18.2803 19.8737C21.8875 19.5884 25.2306 17.872 27.5646 15.107L28.4076 14.1083C28.4359 14.0747 28.4622 14.0395 28.4863 14.0028L30.0575 11.6085C31.1711 9.9113 29.9537 7.65624 27.9237 7.65624Z" fill="black"/>
<path d="M9.47913 26.9792C8.27101 26.9792 7.29163 27.9585 7.29163 29.1667C7.29163 30.3748 8.27101 31.3542 9.47913 31.3542C10.6873 31.3542 11.6666 30.3748 11.6666 29.1667C11.6666 27.9585 10.6873 26.9792 9.47913 26.9792Z" fill="black"/>
<path d="M23.3333 29.1667C23.3333 27.9585 24.3127 26.9792 25.5208 26.9792C26.7289 26.9792 27.7083 27.9585 27.7083 29.1667C27.7083 30.3748 26.7289 31.3542 25.5208 31.3542C24.3127 31.3542 23.3333 30.3748 23.3333 29.1667Z" fill="black"/>
</svg>
